<?xml version="1.0" encoding="UTF-8"?>
<svg xmlns="http://www.w3.org/2000/svg" width="141" height="38" viewBox="0 0 141 38" fill="none">
  <g clip-path="url(#clip0_314_277)">
    <path d="M36.2071 6.21425H30.1714H24.1375V0.125H18.1036V6.21425H12.0696H6.03394H0V12.3053H6.03394H12.0696V18.3945V24.4838V30.573V36.664H18.1036V30.573V24.4838H24.1375V30.573V36.664H30.1714V30.573V24.4838V18.3945V12.3053H36.2071H42.2411V6.21425H36.2071Z" fill="#FF5760"></path>
    <path d="M48.275 32.4415C48.275 30.7261 49.3856 29.2429 51.1517 28.7467C49.9103 28.4828 48.9951 27.3938 48.9951 26.1745C48.9951 24.7899 49.9435 23.7659 51.2824 23.2715C50.1056 22.2827 49.3873 20.7978 49.3873 18.9505C49.3873 15.3877 52.1977 13.1445 55.4997 13.1445C56.9712 13.1445 58.3101 13.5738 59.4224 14.2986C59.8147 12.8471 61.1553 12.022 62.625 12.022C62.822 12.022 63.0818 12.0554 63.2457 12.0871V13.4717C63.0818 13.4383 62.8203 13.4383 62.625 13.4383C61.4482 13.4383 60.5992 14.0981 60.3691 15.2188C61.1867 16.1759 61.6766 17.4286 61.6766 18.9452C61.6766 22.5079 58.8976 24.6509 55.4997 24.6509C54.2584 24.6509 53.1147 24.387 52.1663 23.8592C51.2842 24.2216 50.4665 24.8479 50.4665 25.8385C50.4665 27.3551 52.1001 27.5539 53.4076 27.5539H56.7741C59.2916 27.5539 60.859 27.9832 61.9713 29.0388C62.7558 29.7971 63.2126 30.6874 63.2126 32.0738C63.2126 35.7685 59.3893 37.1197 55.4997 37.1197C51.6102 37.1197 48.2768 35.7016 48.2768 32.4362L48.275 32.4415ZM61.5772 32.1441C61.5772 29.769 59.452 29.1092 56.9032 29.1092H52.5237C51.0523 29.4716 49.811 30.3619 49.811 32.2761C49.811 34.8483 52.6545 35.64 55.5311 35.64C58.6361 35.64 61.5772 34.8483 61.5772 32.1441ZM60.0413 18.9505C60.0413 16.2128 58.0468 14.596 55.498 14.596C52.9491 14.596 50.9878 16.2128 50.9878 18.9505C50.9878 21.6881 52.9491 23.2047 55.498 23.2047C58.0468 23.2047 60.0413 21.6546 60.0413 18.9505Z" fill="white"></path>
    <path d="M67.6164 28.6148C65.819 26.866 65.132 24.6896 65.132 21.8535C65.132 19.0173 65.819 16.8392 67.6164 15.0921C68.7932 13.9714 70.4268 13.1462 72.5189 13.1462C74.611 13.1462 76.2445 13.9714 77.4213 15.0921C79.2188 16.841 79.9057 19.0508 79.9057 21.8535C79.9057 24.6562 79.2188 26.866 77.4213 28.6148C76.2445 29.7355 74.611 30.5607 72.5189 30.5607C70.4268 30.5607 68.7932 29.7355 67.6164 28.6148ZM76.2777 27.4941C77.8136 25.9775 78.239 24.0316 78.239 21.8535C78.239 19.6753 77.8136 17.7312 76.2777 16.2129C75.3955 15.3226 74.1525 14.7614 72.5189 14.7614C70.8853 14.7614 69.6423 15.3226 68.7601 16.2129C67.2241 17.7295 66.7987 19.7088 66.7987 21.8535C66.7987 23.9982 67.2241 25.9757 68.7601 27.4941C69.6423 28.3843 70.8853 28.9456 72.5189 28.9456C74.1525 28.9456 75.3955 28.3843 76.2777 27.4941Z" fill="white"></path>
    <path d="M83.9678 26.8008V6.21948H85.6014V26.7357C85.6014 27.8565 85.9274 28.7151 87.3012 28.7151C87.955 28.7151 88.2497 28.6816 88.7064 28.6165V30.1015C88.3473 30.2 87.9219 30.3003 87.235 30.3003C85.1429 30.3003 83.9661 29.2112 83.9661 26.8044L83.9678 26.8008Z" fill="white"></path>
    <path d="M93.6716 6.71387V9.15414H91.4488V6.71387H93.6716ZM93.4101 13.6072V30.0997H91.7434V13.6072H93.4101Z" fill="white"></path>
    <path d="M99.8974 28.6148C98.0999 26.866 97.413 24.6896 97.413 21.8535C97.413 19.0173 98.0999 16.8392 99.8974 15.0921C101.074 13.9714 102.708 13.1462 104.8 13.1462C106.892 13.1462 108.526 13.9714 109.702 15.0921C111.5 16.841 112.187 19.0508 112.187 21.8535C112.187 24.6562 111.5 26.866 109.702 28.6148C108.526 29.7355 106.892 30.5607 104.8 30.5607C102.708 30.5607 101.074 29.7355 99.8974 28.6148ZM108.559 27.4941C110.095 25.9775 110.52 24.0316 110.52 21.8535C110.52 19.6753 110.095 17.7312 108.559 16.2129C107.676 15.3226 106.433 14.7614 104.8 14.7614C103.166 14.7614 101.923 15.3226 101.041 16.2129C99.5051 17.7295 99.0797 19.7088 99.0797 21.8535C99.0797 23.9982 99.5051 25.9757 101.041 27.4941C101.923 28.3843 103.166 28.9456 104.8 28.9456C106.433 28.9456 107.676 28.3843 108.559 27.4941Z" fill="white"></path>
    <path d="M117.699 25.8122V15.1256H113.843V13.609H117.699V9.05748L119.333 8.66162V13.609H124.464V15.1256H119.333V25.5817C119.333 27.3956 119.889 28.782 122.274 28.782C123.156 28.782 123.843 28.6835 124.692 28.4847V29.9362C123.874 30.2001 123.059 30.332 122.143 30.332C118.941 30.332 117.698 28.4513 117.698 25.8139L117.699 25.8122Z" fill="white"></path>
    <path d="M129.527 6.21948V16.6421C130.442 14.5308 132.86 13.1462 135.147 13.1462C138.873 13.1462 140.998 15.5214 140.998 19.2143V30.0997H139.365V19.3146C139.365 16.4116 137.993 14.6962 135.05 14.6962C131.063 14.6962 129.527 18.2907 129.527 21.8534V30.0997H127.893V6.21948H129.527Z" fill="white"></path>
  </g>
  <defs>
    <clipPath id="clip0_314_277">
      <rect width="141" height="37" fill="white" transform="translate(0 0.125)"></rect>
    </clipPath>
  </defs>
</svg>
