<svg xmlns="http://www.w3.org/2000/svg" viewBox="0 0 1229 289"><title>BH Logo Outline</title><g id="BH_Logo_White" data-name="BH Logo White"><path d="M383.5068,85.8121C391.76,81.6,395.1483,72.3989,395.33,67.1992c.6553-21.8767-15.4064-34.9958-37.2673-34.9958H312.0517V146.9206H358.87c25.4445,0,37.924-11.1675,40.8379-29.6691C401.1717,108.524,399.22,93.773,383.5068,85.8121ZM341.22,56.6727h16.8426c14.5825,0,14.1085,20.4105,0,20.4105H341.22ZM358.0623,121.49H341.22V97.9976h16.8426C375.239,97.9976,375.573,121.49,358.0623,121.49Z"/><polygon points="489.022 118.214 442.344 118.214 442.344 32.203 413.204 32.203 413.204 146.921 489.022 146.921 489.022 118.214"/><path d="M559.3753,123.93l7.4326,22.99H597.94L556.9354,32.2034H530.5015L490.473,146.9206h31.1325l7.1256-22.99ZM543.6492,64.5908h.7938l7.948,33.5181H535.2Z"/><path d="M648.0085,148.5382a46.1908,46.1908,0,0,0,41.3391-25.7515L664.07,111.131c-6.33,15.88-32.2489,11.977-32.2489-1.7846V69.7776c0-14.2213,25.5972-17.4693,33.3639-3.2209l23.66-9.5784c-9.23-20.4119-26.24-26.4068-40.35-26.4068-22.99,0-45.6893,13.2876-45.6893,39.2061v39.5688C602.806,135.419,625.505,148.5382,648.0085,148.5382Z"/><polygon points="729.069 107.228 730.017 105.944 759.379 146.921 796.132 146.921 750.93 87.638 796.3 32.203 760.174 32.203 729.069 74.63 729.069 32.203 699.887 32.203 699.887 146.921 729.069 146.921 729.069 107.228"/><polygon points="865.857 75.62 832.786 75.62 832.786 32.203 803.632 32.203 803.632 146.921 832.786 146.921 832.786 103.644 865.857 103.644 865.857 146.921 895.011 146.921 895.011 32.203 865.857 32.203 865.857 75.62"/><path d="M957.9053,30.5715c-23.8,0-47.4739,12.9664-47.4739,39.3874V109.165c0,26.254,23.8412,39.3732,47.641,39.3732,23.7726,0,47.4739-13.1192,47.4739-39.3732V69.9589C1005.5463,43.6921,981.7465,30.5715,957.9053,30.5715Zm18.6415,78.5935c0,8.2679-9.23,12.4782-18.4744,12.4782s-18.64-4.0561-18.64-12.4782V69.9589c0-8.4491,9.09-12.9806,18.139-12.9806,9.4242,0,18.9755,4.0575,18.9755,12.9806Z"/><path d="M1109.4459,69.9589c-.6554-26.895-18.9628-37.7555-42.6084-37.7555h-45.8706V146.9206h29.335V110.4485h5.1868l26.5738,36.4721h36.1252l-31.2738-39.3589C1100.8568,103.17,1109.4459,91.1931,1109.4459,69.9589Zm-42.1344,15.5463h-17.01V59.2512h17.01C1085.6318,59.2512,1085.6318,85.5052,1067.3115,85.5052Z"/><path d="M1188.2193,32.2034V84.1945c.14,0,3.0824,19.7709,3.2351,19.7709l-.7809.18-9.7312-22.99-27.7174-48.9516h-27.5361V146.9206h29V101.0785l-3.7506-22.1964.81-.1956,10.0653,23.006,25.9471,45.2281h29.2935V32.2034Z"/><polygon points="350.992 239.708 323.568 166.691 313.391 166.691 346.434 254.696 355.511 254.696 387.814 166.607 377.776 166.607 350.992 239.708"/><polygon points="393.085 254.696 447.976 254.696 447.976 245.425 402.328 245.425 402.328 215.629 444.504 215.629 444.504 206.106 402.328 206.106 402.328 176.019 447.976 176.019 447.976 166.691 393.085 166.691 393.085 254.696"/><polygon points="511.178 237.407 467.648 166.691 458.196 166.691 458.196 254.696 467.566 254.696 467.663 184.9 510.522 254.696 520.435 254.696 520.435 166.691 511.178 166.691 511.178 237.407"/><polygon points="527.322 176.019 554.51 176.019 554.51 254.696 563.81 254.696 563.81 176.019 590.997 176.019 590.997 166.691 527.322 166.691 527.322 176.019"/><path d="M651.6462,229.1534c0,12.0469-11.7114,17.525-22.5862,17.525-10.8477,0-22.4891-5.4781-22.4891-17.525v-62.462h-9.2858v62.462c0,17.5121,15.9788,26.6994,31.7749,26.6994,15.8532,0,31.8863-9.1873,31.8863-26.6994v-62.462h-9.3Z"/><path d="M735.9706,191.9831c-.3213-16.3271-10.4708-25.2917-28.5683-25.2917H675.4046v88.005h9.16V218.2928h13.7473l27.439,36.4036h11.39L709.55,218.25C726.6006,217.5676,735.9706,208.3089,735.9706,191.9831Zm-51.4058,17.3723V175.74h23.814c12.5752,0,18.4316,5.2282,18.4316,16.3957,0,12.0612-5.7579,17.22-19.2682,17.22Z"/><polygon points="745.842 254.696 800.733 254.696 800.733 245.425 755.099 245.425 755.099 215.629 797.275 215.629 797.275 206.106 755.099 206.106 755.099 176.019 800.733 176.019 800.733 166.691 745.842 166.691 745.842 254.696"/><path d="M837.9313,205.2708c-20.0078-4.0433-21.8067-11.3217-21.4155-16.48.878-13.0506,15.6847-14.0543,20.2162-14.0543,7.0543,0,15.9917,2.4114,19.9093,9.243l1.3663,2.3571,8.6862-3.3879-1.8261-3.2352c-5.2425-9.1187-15.225-14.1514-28.1357-14.1514-14.277,0-28.9309,7.0686-29.4734,22.8661-.8924,19.7422,20.606,24.19,28.6511,25.8771,14.43,3.1223,22.6005,7.0542,21.8338,17.7905-1.4505,10.7349-12.1726,14.5826-20.9,14.5826-9.2158,0-17.3723-3.7777-21.791-10.121l-1.5062-2.1758-8.5748,3.7092,2.1187,3.1923c6.052,9.133,17.0939,14.57,29.5163,14.57,19.9093,0,29.8232-11.99,30.6042-23.1445C868.7582,211.3628,845.53,206.7756,837.9313,205.2708Z"/><path d="M49.2968,228.3381c-.24.14-.5.28-.75.41a119.6421,119.6421,0,0,0,84.88,35.25c.17,0,.34,0,.51-.01A119.0765,119.0765,0,0,1,49.2968,228.3381Z"/><path d="M134.4481,21.9986A122.5015,122.5015,0,1,0,256.95,144.5,122.64,122.64,0,0,0,134.4481,21.9986Zm0,6A116.5015,116.5015,0,1,1,51.7472,226.4714c.128-.1327.26-.2609.38-.4033l2.52-2.96a42.0487,42.0487,0,0,1,16.66-10.85l17.43-5.33a13.8211,13.8211,0,0,1,15.15,5.91l13.07,22.38c2.89,4.91,8.15,5.29,11.68.82l10.9-13.69a41.6165,41.6165,0,0,1,16.26-11.4l10.74-3.62a11.0725,11.0725,0,0,0,7.04-13.3l-6.66-23.95a201.0835,201.0835,0,0,1-4.3-20.21l-4.3-28.88c-.85-5.64-5.66-12.39-10.72-15.03l-12.6-6.57c-1.1-.58-.75-.42-2.93-1.41-2.1-1.21-3.43-1.43-4.54-2.9-5.84,14.88-3.71,18.69-3.71,18.69,1.41,2.26,3.15,1.79,4.77,5.3a19.4113,19.4113,0,0,1,.73,5.11c.28,4.97-4.02,10.17-11.46,15.16l-.93.47c-5.07,2.59-10.31.15-11.66-5.38l-1.67-6.96c-7.44-18.77-3.67-22.37-3.67-22.37l12.05-14.67c-2.02.9-10.09.95-11.62.91-.12-.01-.2,0-.32-.01a.8083.8083,0,0,1-.16-.01,22.423,22.423,0,0,1-11.68-5.21l-19.03-16.73c-4.27-3.76-11.92-4.66-16.96-2.04l-8.8651,4.6394A116.3415,116.3415,0,0,1,134.4481,27.9986Z"/><path d="M105.1668,118.7781c1.46,4.58,4.67,11.89,4.67,11.89s.97,7.79,6.52,4.82c0,0,6.67-5.68,7.78-8.02,1.1-2.36,1.85-6.43-3.34-9.03,0,0-5.36-4.21,2.53-24.44l4.89-15.55-22.54,25.65S101.5368,107.3081,105.1668,118.7781Z"/></g></svg>